# xmcd
#
# Track frame offsets: 
#        150
#        11062
#        24420
#        37160
#        49062
#        60187
#        75197
#        83897
#        98300
#        110400
#        124547
#        135575
#        145645
#        157865
#        167307
#        177172
#        194095
#        204780
#        224420
#        234717
#
# Disc length: 3268 seconds
#
# Revision: 0
# Processed by: cddbd v1.4PL0 Copyright (c) Steve Scherf et al.
# Submitted via: ExactAudioCopy v0.90b4
#
DISCID=f20cc214
DTITLE=Peggy Lee - 20 Golden Greats
DYEAR=1984
DGENRE=Blues
TTITLE0=Alright, Okay, You Win
TTITLE1=Golden Earrings
TTITLE2=Manana Is Soon Enough For Me
TTITLE3=(Ghost) Riders In The Sky
TTITLE4=Hallelujah I Love Him So
TTITLE5=Fever
TTITLE6=Heart (From "Damn Yankees")
TTITLE7=Yes Indeed!
TTITLE8=You're Getting To Be A Habit With Me
TTITLE9=Don't Smoke In Bed
TTITLE10=Why Don't You Do Right
TTITLE11=So What's New
TTITLE12=What A Little Moonlight Can Do
TTITLE13=Big Spender
TTITLE14=The Alley Cat Song
TTITLE15=The Man I Love
TTITLE16=I Left My Heart In San Francisco
TTITLE17=Is That All There Is?
TTITLE18=I'll Get By
TTITLE19=A Taste Of Honey
EXTD=
EXTT0=
EXTT1=
EXTT2=
EXTT3=
EXTT4=
EXTT5=
EXTT6=
EXTT7=
EXTT8=
EXTT9=
EXTT10=
EXTT11=
EXTT12=
EXTT13=
EXTT14=
EXTT15=
EXTT16=
EXTT17=
EXTT18=
EXTT19=
PLAYORDER=
